<?xml version="1.0" encoding="UTF-8" standalone="no" ?>
<!DOCTYPE svg PUBLIC "-//W3C//DTD SVG 1.1//EN" "http://www.w3.org/Graphics/SVG/1.1/DTD/svg11.dtd">
<svg xmlns="http://www.w3.org/2000/svg" xmlns:xlink="http://www.w3.org/1999/xlink" version="1.1" width="1024" height="768" viewBox="0 0 1024 768" xml:space="preserve">
<desc>Created with Fabric.js 5.3.0</desc>
<defs>
</defs>
<g transform="matrix(1 0 0 1 512.5 384.5)" id="backgroundElement"  >
<rect style="stroke: none; stroke-width: 1; stroke-dasharray: none; stroke-linecap: butt; stroke-dashoffset: 0; stroke-linejoin: miter; stroke-miterlimit: 4; fill: rgb(255,255,255); fill-opacity: 0; fill-rule: nonzero; opacity: 1;"  x="-512" y="-384" rx="0" ry="0" width="1024" height="768" />
</g>
<g transform="matrix(1 0 0 1 512 384)"  >
<path style="stroke: none; stroke-width: 1; stroke-dasharray: none; stroke-linecap: butt; stroke-dashoffset: 0; stroke-linejoin: miter; stroke-miterlimit: 4; fill: rgb(255,255,255); fill-rule: nonzero; opacity: 1;"  transform=" translate(-512, -384)" d="M 205.62 323.78 L 205.62 323.78999999999996 C 205.57 323.77 200.47 328.84999999999997 190.77 338.54999999999995 L 175.98000000000002 353.3299999999999 L 181.38000000000002 373.4699999999999 C 184.34000000000003 384.5399999999999 186.8 393.62999999999994 186.83 393.6499999999999 C 186.86 393.6799999999999 190.12 394.56999999999994 194.08 395.61999999999995 C 198.04000000000002 396.65999999999997 201.28 397.5199999999999 201.29000000000002 397.50999999999993 C 201.30000000000004 397.49999999999994 200.97000000000003 396.23999999999995 200.55 394.7099999999999 C 200.14000000000001 393.1699999999999 199.78 391.8999999999999 199.76000000000002 391.87999999999994 C 199.74000000000004 391.85999999999996 197.75000000000003 391.31999999999994 195.34000000000003 390.68999999999994 C 192.93000000000004 390.04999999999995 190.96000000000004 389.5299999999999 190.95000000000005 389.5299999999999 C 190.95000000000005 389.5199999999999 189.02000000000004 382.3499999999999 186.68000000000004 373.5999999999999 C 184.33000000000004 364.8499999999999 182.42000000000004 357.6799999999999 182.42000000000004 357.6799999999999 C 182.43000000000004 357.6799999999999 188.20000000000005 359.2199999999999 195.25000000000006 361.1099999999999 C 202.30000000000007 362.9999999999999 209.18000000000006 364.8399999999999 210.55000000000007 365.2099999999999 C 211.91000000000008 365.56999999999994 213.31000000000006 365.93999999999994 213.65000000000006 366.0399999999999 L 214.28000000000006 366.2099999999999 L 214.45000000000005 366.8499999999999 C 214.54000000000005 367.2099999999999 216.47000000000006 374.3699999999999 218.72000000000006 382.7799999999999 C 220.97000000000006 391.1799999999999 222.80000000000007 398.0499999999999 222.80000000000007 398.0599999999999 C 222.80000000000007 398.0599999999999 221.72000000000006 397.76999999999987 220.41000000000008 397.4099999999999 C 219.1000000000001 397.04999999999995 218.0200000000001 396.7499999999999 218.0200000000001 396.75999999999993 C 218.0100000000001 396.7699999999999 218.3500000000001 398.0399999999999 218.7700000000001 399.5899999999999 L 219.5300000000001 402.4099999999999 L 223.3400000000001 403.44999999999993 L 227.1500000000001 404.49999999999994 L 241.9300000000001 389.7099999999999 L 256.7200000000001 374.92999999999995 L 251.3100000000001 354.7699999999999 C 247.94000000000008 342.19999999999993 245.88000000000008 334.5999999999999 245.8400000000001 334.5799999999999 C 245.8100000000001 334.55999999999995 236.76000000000008 332.11999999999995 225.73000000000008 329.1699999999999 C 214.71000000000006 326.2199999999999 205.66000000000008 323.7899999999999 205.62000000000006 323.7799999999999 z M 207.07 329.46 C 207.1 329.46 214.26 331.37 222.98999999999998 333.71 C 231.73 336.03999999999996 238.86999999999998 337.96999999999997 238.86999999999998 337.97999999999996 C 238.86999999999998 337.99999999999994 233.62999999999997 343.24999999999994 227.22999999999996 349.65 L 215.58999999999997 361.28999999999996 L 199.71999999999997 357.04999999999995 C 190.99999999999997 354.71 183.82999999999998 352.78999999999996 183.78999999999996 352.78 C 183.73999999999995 352.76 187.72999999999996 348.73999999999995 195.36999999999998 341.09999999999997 C 201.77999999999997 334.7 207.03999999999996 329.46 207.06999999999996 329.46 z M 242.5 341.60999999999996 C 242.52 341.60999999999996 244.44 348.75999999999993 246.78 357.48999999999995 C 249.12 366.22999999999996 251.04 373.4 251.04 373.41999999999996 C 251.04 373.44999999999993 245.79 378.71 239.39 385.10999999999996 C 232.98 391.52 227.73 396.73999999999995 227.72 396.71999999999997 C 227.71 396.69 225.78 389.53 223.44 380.78999999999996 L 219.19 364.9 L 230.82999999999998 353.25 C 237.23999999999998 346.85 242.48 341.61 242.49999999999997 341.61 z M 335.79 355.15 C 319.56 355.15 306.38 368.26 306.38 384.56 C 306.38 396.39 313.40999999999997 406.54 323.56 411.26 C 327.64 413.09999999999997 331.71 413.96999999999997 335.79 413.96999999999997 C 340.74 413.96999999999997 342.5 411.58 342.5 408.94 C 342.5 406.46 340.9 404.54 337.07 404.14 C 333.15 403.74 329.95 402.87 326.92 401.11 C 320.92 397.83000000000004 317.01 391.76 317.01 384.56 C 317.01 374.17 325.4 365.78 335.78999999999996 365.78 C 340.81999999999994 365.78 344.9 367.38 348.09999999999997 369.21999999999997 C 351.04999999999995 370.80999999999995 354.01 370.72999999999996 355.45 368.58 C 357.13 366.18 356.96999999999997 362.97999999999996 354.72999999999996 361.14 C 348.65999999999997 356.19 341.14 355.15 335.78999999999996 355.15 z M 725.19 355.15 C 708.97 355.15 695.7800000000001 368.26 695.7800000000001 384.56 C 695.7800000000001 400.79 708.9700000000001 413.97 725.19 413.97 C 732.1500000000001 413.97 740.1400000000001 411.5 745.4100000000001 407.74 C 746.45 407.02 747.2500000000001 406.3 747.7300000000001 405.34000000000003 C 748.2900000000001 404.14000000000004 748.2900000000001 403.02000000000004 748.2900000000001 401.59000000000003 L 748.2900000000001 389.04 C 748.2900000000001 386.16 745.97 383.76000000000005 743.0100000000001 383.76000000000005 C 740.0600000000001 383.76000000000005 737.7400000000001 386.16 737.7400000000001 389.04 L 737.7400000000001 400.07 C 734.2200000000001 402.07 729.3500000000001 403.34 725.1900000000002 403.34 C 714.8000000000002 403.34 706.4100000000002 394.95 706.4100000000002 384.55999999999995 C 706.4100000000002 374.1699999999999 714.8000000000002 365.78 725.1900000000002 365.78 C 730.2300000000001 365.78 734.1400000000002 367.46 737.5000000000001 369.13 C 740.0600000000001 370.49 743.2600000000001 370.81 744.8500000000001 368.58 C 746.5300000000001 366.18 746.3700000000001 362.97999999999996 744.1300000000001 361.14 C 738.0600000000001 356.19 730.5500000000001 355.15 725.19 355.15 z M 797.6400000000001 355.15 C 794.7600000000001 355.15 792.3600000000001 357.54999999999995 792.3600000000001 360.5 C 792.3600000000001 363.38 794.7600000000001 365.78 797.6400000000001 365.78 C 800.5900000000001 365.78 802.9900000000001 363.38 802.9900000000001 360.5 C 802.9900000000001 357.55 800.5900000000001 355.15 797.6400000000001 355.15 z M 866.7900000000001 355.15 C 858.5600000000001 355.15 853.84 358.19 851.2800000000001 360.73999999999995 C 848.33 363.78 846.7300000000001 367.69999999999993 846.7300000000001 371.84999999999997 C 846.8100000000002 382.79999999999995 857.8400000000001 386.08 865.1900000000002 388.71999999999997 C 873.3400000000001 391.67999999999995 877.1000000000001 393.83 877.1000000000001 397.19 C 877.1000000000001 399.99 875.4200000000002 401.98 873.1800000000002 403.02 C 870.3100000000002 404.38 867.3500000000001 403.41999999999996 864.6300000000002 403.27 C 861.9900000000002 403.10999999999996 859.7600000000002 404.94 859.7600000000002 408.29999999999995 C 859.7600000000002 412.37999999999994 865.3500000000003 413.96999999999997 869.5100000000002 413.96999999999997 C 882.2200000000003 413.96999999999997 887.7300000000002 405.73999999999995 887.7300000000002 397.83 C 887.7300000000002 388 878.7000000000003 383.68 868.4700000000003 379.77 C 860.1600000000003 376.57 857.3600000000002 374.40999999999997 857.3600000000002 371.84999999999997 C 857.3600000000002 367.93999999999994 861.1100000000002 365.14 866.4700000000003 365.14 C 872.6200000000002 365.14 875.9800000000002 368.5 877.4200000000003 369.78 C 879.4200000000003 371.53 882.2900000000003 371.77 884.2100000000003 369.38 C 885.6500000000003 367.54 885.8900000000002 364.98 884.4500000000003 363.06 C 882.3800000000002 360.1 876.1400000000003 355.15 866.7900000000003 355.15 z M 382.99000000000007 356.59 C 380.11000000000007 356.59 377.7100000000001 358.97999999999996 377.7100000000001 361.85999999999996 L 377.7100000000001 388.96 C 377.7100000000001 403.9 387.55000000000007 413.96999999999997 402.0900000000001 413.96999999999997 C 418.8800000000001 413.96999999999997 426.4700000000001 401.03 426.4700000000001 388.96 L 426.4700000000001 377.77 C 426.4700000000001 374.89 424.0700000000001 372.49 421.2000000000001 372.49 C 418.2400000000001 372.49 415.8400000000001 374.89 415.8400000000001 377.77 L 415.8400000000001 388.96 C 415.8400000000001 395.90999999999997 412.24000000000007 403.34 402.0900000000001 403.34 C 389.62000000000006 403.34 388.3500000000001 393.34999999999997 388.3500000000001 388.96 L 388.3500000000001 361.85999999999996 C 388.3500000000001 358.97999999999996 385.9500000000001 356.59 382.99000000000007 356.59 z M 421.20000000000005 356.59 C 418.24000000000007 356.59 415.84000000000003 358.97999999999996 415.84000000000003 361.85999999999996 C 415.84000000000003 364.81999999999994 418.24 367.21999999999997 421.20000000000005 367.21999999999997 C 424.07000000000005 367.21999999999997 426.47 364.82 426.47 361.85999999999996 C 426.47 358.97999999999996 424.07000000000005 356.59 421.20000000000005 356.59 z M 456.01000000000005 356.59 C 453.13000000000005 356.59 450.7300000000001 358.97999999999996 450.7300000000001 361.85999999999996 L 450.7300000000001 407.25999999999993 C 450.7300000000001 410.2199999999999 453.13000000000005 412.5399999999999 456.01000000000005 412.5399999999999 C 458.97 412.5399999999999 461.37000000000006 410.2199999999999 461.37000000000006 407.25999999999993 L 461.37000000000006 388.55999999999995 L 472.96000000000004 388.55999999999995 C 477.99 388.55999999999995 482.38000000000005 391.19999999999993 482.38000000000005 395.2699999999999 C 482.38000000000005 397.74999999999994 481.51000000000005 399.2699999999999 481.19000000000005 400.7099999999999 C 480.55000000000007 403.17999999999995 481.19000000000005 405.17999999999995 483.58000000000004 406.4599999999999 C 486.14000000000004 407.81999999999994 489.34000000000003 407.0199999999999 490.78000000000003 404.4599999999999 C 492.3 401.81999999999994 493.02000000000004 398.86999999999995 493.02000000000004 395.18999999999994 C 493.02000000000004 389.43999999999994 489.34000000000003 384.23999999999995 484.78000000000003 382.0799999999999 C 487.18 380.1599999999999 489.66 375.44999999999993 489.66 370.48999999999995 C 489.66 362.9 483.74 356.59 472.63 356.59 L 456.09 356.59 L 456.01 356.59 z M 522.21 356.59 C 519.33 356.59 516.94 358.97999999999996 516.94 361.85999999999996 L 516.94 407.25999999999993 C 516.94 410.13999999999993 519.33 412.5399999999999 522.21 412.5399999999999 L 549.38 412.5399999999999 C 552.34 412.5399999999999 554.66 410.13999999999993 554.66 407.25999999999993 C 554.66 404.29999999999995 552.3399999999999 401.8999999999999 549.38 401.8999999999999 L 527.57 401.8999999999999 L 527.57 389.5999999999999 L 546.11 389.5999999999999 C 549.07 389.5999999999999 551.38 387.4399999999999 551.38 384.5599999999999 C 551.38 381.5999999999999 549.07 379.4499999999999 546.11 379.4499999999999 L 527.57 379.4499999999999 L 527.57 367.21999999999986 L 533.24 367.21999999999986 C 536.12 367.21999999999986 538.52 364.8199999999999 538.52 361.85999999999984 C 538.52 358.97999999999985 536.12 356.58999999999986 533.24 356.58999999999986 L 522.21 356.58999999999986 z M 549.1500000000001 356.59 C 546.19 356.59 543.7900000000001 358.97999999999996 543.7900000000001 361.85999999999996 C 543.7900000000001 364.81999999999994 546.19 367.21999999999997 549.1500000000001 367.21999999999997 C 552.0200000000001 367.21999999999997 554.4200000000001 364.82 554.4200000000001 361.85999999999996 C 554.4200000000001 358.97999999999996 552.0200000000001 356.59 549.1500000000001 356.59 z M 599.5200000000001 356.59 C 597.44 356.59 595.6000000000001 357.78 594.7200000000001 359.61999999999995 L 573.1400000000001 404.93999999999994 C 571.95 407.5799999999999 573.0600000000001 410.7799999999999 575.7 412.04999999999995 C 578.34 413.24999999999994 581.46 412.13999999999993 582.73 409.49999999999994 L 587.77 398.94999999999993 L 614.63 398.94999999999993 C 616.47 398.94999999999993 618.06 397.98999999999995 619.02 396.54999999999995 C 620.86 393.8299999999999 619.42 391.50999999999993 618.54 389.67999999999995 L 604.3199999999999 359.61999999999995 C 603.4399999999999 357.78 601.52 356.59 599.52 356.59 z M 652.2700000000001 356.59 C 649.3900000000001 356.59 647.0000000000001 358.97999999999996 647.0000000000001 361.85999999999996 L 647.0000000000001 407.25999999999993 C 647.0000000000001 410.13999999999993 649.3900000000001 412.5399999999999 652.2700000000001 412.5399999999999 L 663.5400000000001 412.5399999999999 C 666.5000000000001 412.5399999999999 668.82 410.13999999999993 668.82 407.25999999999993 C 668.82 404.29999999999995 666.5 401.8999999999999 663.5400000000001 401.8999999999999 L 657.6300000000001 401.8999999999999 L 657.6300000000001 361.8599999999999 C 657.6300000000001 358.9799999999999 655.2300000000001 356.5899999999999 652.2700000000001 356.5899999999999 z M 782.9300000000001 360.28999999999996 C 781.7500000000001 360.26 780.5500000000001 360.60999999999996 779.57 361.37999999999994 C 772.38 367.05999999999995 768.22 375.36999999999995 768.22 384.47999999999996 C 768.22 400.78999999999996 781.4100000000001 413.96999999999997 797.64 413.96999999999997 C 813.86 413.96999999999997 827.13 400.78999999999996 827.13 384.47999999999996 C 827.13 375.36999999999995 822.97 367.05999999999995 815.78 361.37999999999994 C 813.4599999999999 359.61999999999995 810.1 360.0199999999999 808.35 362.3399999999999 C 806.51 364.5799999999999 806.91 367.93999999999994 809.22 369.7799999999999 C 813.86 373.3699999999999 816.5 378.6499999999999 816.5 384.4799999999999 C 816.5 394.8699999999999 808.03 403.3399999999999 797.64 403.3399999999999 C 787.25 403.3399999999999 778.85 394.8699999999999 778.85 384.4799999999999 C 778.85 378.6499999999999 781.49 373.3699999999999 786.0500000000001 369.7799999999999 C 788.36 367.93999999999994 788.7600000000001 364.5799999999999 787.0100000000001 362.3399999999999 C 785.9700000000001 361.0399999999999 784.4600000000002 360.3399999999999 782.9300000000001 360.2899999999999 z M 165.9000000000001 363.51 C 165.85000000000008 363.5 160.6200000000001 368.7 151.0500000000001 378.27 L 136.2700000000001 393.04999999999995 L 141.66000000000008 413.16999999999996 C 144.6200000000001 424.22999999999996 147.0600000000001 433.30999999999995 147.08000000000007 433.34999999999997 C 147.11000000000007 433.39 154.50000000000006 435.39 167.28000000000006 438.80999999999995 L 187.43000000000006 444.21999999999997 L 202.21000000000006 429.44 L 217.00000000000006 414.66 L 211.59000000000006 394.48 L 206.18000000000006 374.3 L 198.90000000000006 372.32 C 194.89000000000007 371.23 191.60000000000005 370.34 191.60000000000005 370.34 C 191.59000000000006 370.34999999999997 191.93000000000006 371.61999999999995 192.35000000000005 373.16999999999996 C 192.77000000000004 374.71999999999997 193.11000000000004 375.98999999999995 193.12000000000006 375.99999999999994 C 193.12000000000006 375.99999999999994 195.12000000000006 376.55999999999995 197.57000000000005 377.21999999999997 C 200.01000000000005 377.89 202.02000000000004 378.45 202.03000000000006 378.46 C 202.03000000000006 378.46 203.96000000000006 385.63 206.30000000000007 394.38 C 208.65000000000006 403.14 210.57000000000008 410.3 210.56000000000006 410.3 C 210.56000000000006 410.31 203.39000000000007 408.39 194.63000000000005 406.04 C 185.88000000000005 403.70000000000005 178.72000000000006 401.78000000000003 178.71000000000006 401.77000000000004 C 178.71000000000006 401.77000000000004 176.79000000000008 394.6 174.44000000000005 385.85 C 172.09000000000003 377.1 170.18000000000006 369.93 170.18000000000006 369.92 C 170.19000000000005 369.92 171.25000000000006 370.19 172.55000000000007 370.53000000000003 C 173.84000000000006 370.87 174.91000000000008 371.14000000000004 174.92000000000007 371.13000000000005 C 174.93000000000006 371.12000000000006 174.60000000000008 369.86000000000007 174.18000000000006 368.33000000000004 C 173.77000000000007 366.80000000000007 173.41000000000005 365.53000000000003 173.39000000000007 365.51000000000005 C 173.3700000000001 365.49000000000007 171.69000000000008 365.03000000000003 169.66000000000008 364.50000000000006 C 167.63000000000008 363.9700000000001 165.94000000000008 363.52000000000004 165.9000000000001 363.51000000000005 z M 461.3700000000001 365.94 L 471.84000000000015 365.94 C 477.35000000000014 365.94 479.83000000000015 369.13 479.83000000000015 372.57 C 479.83000000000015 376.57 476.39000000000016 379.12 471.84000000000015 379.12 L 461.3700000000001 379.12 L 461.3700000000001 365.94 z M 165.2600000000001 371.28 C 165.28000000000011 371.28999999999996 167.2000000000001 378.46 169.5400000000001 387.2 L 173.8000000000001 403.08 L 162.1500000000001 414.72999999999996 C 155.75000000000009 421.14 150.50000000000009 426.37999999999994 150.4800000000001 426.37999999999994 C 150.4700000000001 426.37999999999994 148.5800000000001 419.3399999999999 146.2700000000001 410.74999999999994 C 143.97000000000008 402.1499999999999 142.0500000000001 394.98999999999995 142.0100000000001 394.8299999999999 L 141.9300000000001 394.5399999999999 L 153.5800000000001 382.8999999999999 C 159.9900000000001 376.4899999999999 165.2400000000001 371.25999999999993 165.2600000000001 371.2799999999999 z M 599.5200000000001 374.16999999999996 L 607.0300000000001 389.84 L 592.09 389.84 L 599.52 374.16999999999996 z M 727.19 383.75999999999993 C 724.23 383.75999999999993 721.83 386.1599999999999 721.83 389.0399999999999 C 721.83 391.9899999999999 724.23 394.38999999999993 727.19 394.38999999999993 C 730.07 394.38999999999993 732.46 391.98999999999995 732.46 389.0399999999999 C 732.46 386.1599999999999 730.07 383.75999999999993 727.19 383.75999999999993 z M 851.0400000000001 395.98999999999995 C 848.1700000000001 395.98999999999995 845.7700000000001 398.30999999999995 845.7700000000001 401.2699999999999 C 845.7700000000001 404.2199999999999 848.1700000000001 406.5399999999999 851.0400000000001 406.5399999999999 C 854.0000000000001 406.5399999999999 856.4000000000001 404.2199999999999 856.4000000000001 401.2699999999999 C 856.4000000000001 398.30999999999995 854.0000000000001 395.98999999999995 851.0400000000001 395.98999999999995 z M 352.0900000000001 398.06999999999994 C 349.2200000000001 398.06999999999994 346.8200000000001 400.4699999999999 346.8200000000001 403.3399999999999 C 346.8200000000001 406.2999999999999 349.2200000000001 408.69999999999993 352.0900000000001 408.69999999999993 C 355.05000000000007 408.69999999999993 357.4500000000001 406.29999999999995 357.4500000000001 403.3399999999999 C 357.4500000000001 400.4699999999999 355.0500000000001 398.06999999999994 352.0900000000001 398.06999999999994 z M 471.9100000000001 401.8999999999999 C 468.9600000000001 401.8999999999999 466.6400000000001 404.2999999999999 466.6400000000001 407.25999999999993 C 466.6400000000001 410.13999999999993 468.9600000000001 412.5399999999999 471.9100000000001 412.5399999999999 C 474.87000000000006 412.5399999999999 477.19000000000005 410.13999999999993 477.19000000000005 407.25999999999993 C 477.19000000000005 404.29999999999995 474.87000000000006 401.8999999999999 471.9100000000001 401.8999999999999 z M 621.0200000000001 401.8999999999999 C 618.1400000000001 401.8999999999999 615.7500000000001 404.2999999999999 615.7500000000001 407.25999999999993 C 615.7500000000001 410.13999999999993 618.1400000000001 412.5399999999999 621.0200000000001 412.5399999999999 C 623.9800000000001 412.5399999999999 626.3800000000001 410.13999999999993 626.3800000000001 407.25999999999993 C 626.3800000000001 404.29999999999995 623.9800000000001 401.8999999999999 621.0200000000001 401.8999999999999 z M 679.45 401.8999999999999 C 676.49 401.8999999999999 674.1700000000001 404.2999999999999 674.1700000000001 407.25999999999993 C 674.1700000000001 410.13999999999993 676.4900000000001 412.5399999999999 679.45 412.5399999999999 C 682.4000000000001 412.5399999999999 684.72 410.13999999999993 684.72 407.25999999999993 C 684.72 404.29999999999995 682.4 401.8999999999999 679.45 401.8999999999999 z M 177.42000000000007 406.69999999999993 C 177.43000000000006 406.69999999999993 184.58000000000007 408.60999999999996 193.29000000000008 410.93999999999994 C 202.00000000000009 413.2699999999999 209.16000000000008 415.18999999999994 209.20000000000007 415.2099999999999 C 209.24000000000007 415.2199999999999 205.33000000000007 419.1699999999999 197.62000000000006 426.87999999999994 C 187.52000000000007 436.97999999999996 185.95000000000007 438.5299999999999 185.85000000000005 438.5199999999999 C 185.79000000000005 438.50999999999993 178.62000000000006 436.5899999999999 169.93000000000006 434.2699999999999 C 161.24000000000007 431.93999999999994 154.12000000000006 430.0199999999999 154.11000000000007 430.00999999999993 C 154.10000000000008 429.99999999999994 159.33000000000007 424.74999999999994 165.74000000000007 418.3499999999999 C 172.15000000000006 411.9399999999999 177.40000000000006 406.69999999999993 177.42000000000007 406.69999999999993 z" stroke-linecap="round" />
</g>
</svg>