<svg xmlns="http://www.w3.org/2000/svg" width="281" height="275" viewBox="0 0 281 275" version="1.1"><path d="M 148.500 12 C 151.209 14.750, 153.650 17, 153.925 17 C 154.200 17, 152.209 14.750, 149.500 12 C 146.791 9.250, 144.350 7, 144.075 7 C 143.800 7, 145.791 9.250, 148.500 12 M 173.813 22.683 C 174.534 22.972, 175.397 22.936, 175.729 22.604 C 176.061 22.272, 175.471 22.036, 174.417 22.079 C 173.252 22.127, 173.015 22.364, 173.813 22.683 M 85.813 41.683 C 86.534 41.972, 87.397 41.936, 87.729 41.604 C 88.061 41.272, 87.471 41.036, 86.417 41.079 C 85.252 41.127, 85.015 41.364, 85.813 41.683 M 253 64.378 C 253 64.585, 253.787 65.373, 254.750 66.128 C 256.336 67.371, 256.371 67.336, 255.128 65.750 C 253.821 64.084, 253 63.555, 253 64.378 M 257 69.378 C 257 69.585, 257.788 70.373, 258.750 71.128 C 260.336 72.371, 260.371 72.336, 259.128 70.750 C 257.821 69.084, 257 68.555, 257 69.378 M 0.232 135 C 0.232 136.925, 0.438 137.713, 0.689 136.750 C 0.941 135.787, 0.941 134.213, 0.689 133.250 C 0.438 132.287, 0.232 133.075, 0.232 135 M 2.079 156.583 C 2.127 157.748, 2.364 157.985, 2.683 157.188 C 2.972 156.466, 2.936 155.603, 2.604 155.271 C 2.272 154.939, 2.036 155.529, 2.079 156.583 M 241.405 229.250 L 239.500 231.500 241.750 229.595 C 243.864 227.805, 244.455 227, 243.655 227 C 243.465 227, 242.453 228.012, 241.405 229.250 M 80.750 233.662 C 81.438 233.940, 82.563 233.940, 83.250 233.662 C 83.938 233.385, 83.375 233.158, 82 233.158 C 80.625 233.158, 80.063 233.385, 80.750 233.662 M 154.250 260.716 C 155.762 260.945, 158.238 260.945, 159.750 260.716 C 161.262 260.487, 160.025 260.300, 157 260.300 C 153.975 260.300, 152.738 260.487, 154.250 260.716" stroke="none" fill="#fcf4fc" fill-rule="evenodd"/><path d="M 130.531 2.250 C 128.120 4.353, 127.615 5.572, 126.493 12 C 125.645 16.858, 123.920 23.281, 123.001 24.997 C 122.490 25.954, 120.653 27.019, 118.919 27.366 C 114.823 28.185, 97.434 36.584, 93.256 39.762 C 89.896 42.316, 88.516 42.357, 81 40.125 C 67.125 36.005, 64.272 35.592, 61.632 37.321 C 57.947 39.736, 57.484 44.182, 60.050 52.500 C 61.238 56.350, 62.550 59.950, 62.967 60.500 C 64.717 62.811, 65.075 67.260, 63.641 68.868 C 60.279 72.637, 52.257 87.040, 49.643 94 C 43.794 109.579, 42.742 112, 41.826 112 C 41.309 112, 38.773 110.808, 36.192 109.352 C 17.888 99.022, 12.676 97.016, 7.996 98.501 C 5.384 99.330, 3.215 104.129, 2.485 110.694 C 2.191 113.337, 1.553 117.750, 1.066 120.500 C -1.081 132.641, 2.511 164.717, 7.301 176.177 C 10.489 183.803, 14.056 183.934, 29.971 177.013 C 36.670 174.099, 42.463 172.124, 42.877 172.613 C 43.289 173.101, 44.374 175.975, 45.286 179 C 46.968 184.573, 55.672 202.288, 59.119 207.154 C 61.845 211.001, 61.511 213.076, 56.500 223.447 C 51.110 234.601, 50.841 237.277, 54.934 238.973 C 58.367 240.394, 61.020 239.944, 73.744 235.778 L 82.989 232.751 88.244 236.683 C 94.077 241.046, 103.130 246.591, 110 250.008 C 112.475 251.239, 114.582 252.310, 114.681 252.388 C 114.781 252.466, 115.386 256.573, 116.026 261.515 C 117.463 272.618, 118.800 275, 123.593 275 C 127.764 275, 133.678 271.248, 140.061 264.550 L 144.379 260.019 159.439 260.081 C 170.972 260.127, 176.609 259.676, 183.500 258.152 C 233.433 247.110, 269.780 211.041, 278.972 163.409 C 280.396 156.029, 281.173 147.506, 281.381 137.006 C 281.549 128.478, 281.366 123.075, 280.975 125 L 280.263 128.500 280.110 125 C 279.828 118.554, 276.206 104.581, 272.626 96.126 C 262.123 71.320, 242.196 48.514, 220.497 36.467 C 217.492 34.798, 214.628 32.998, 214.133 32.467 C 213.638 31.935, 211.620 27.502, 209.649 22.615 C 205.836 13.163, 203.686 10, 201.070 10 C 200.179 10, 196.091 13.382, 191.985 17.515 C 187.039 22.495, 184.011 24.829, 183.010 24.434 C 179.682 23.120, 169.194 21.717, 164.173 21.914 L 158.845 22.123 149.173 12.748 C 140.689 4.524, 135.159 0, 133.591 0 C 133.327 0, 131.950 1.012, 130.531 2.250 M 127.128 88.003 C 127.883 89.105, 132.154 95.316, 136.620 101.805 L 144.739 113.604 135.370 126.817 C 130.216 134.085, 126 140.249, 126 140.515 C 126 140.782, 129.713 140.991, 134.250 140.981 L 142.500 140.962 148.104 132.425 L 153.708 123.889 159.104 132.432 L 164.500 140.975 173.309 140.987 C 180.090 140.997, 181.946 140.712, 181.372 139.750 C 179.660 136.882, 165.567 116.365, 164.242 114.812 C 162.950 113.298, 163.722 111.851, 171.710 100.812 C 176.609 94.040, 180.956 87.938, 181.368 87.250 C 181.944 86.289, 180.160 86, 173.663 86 L 165.208 86 162.153 90.750 C 160.473 93.362, 157.983 97.007, 156.620 98.848 L 154.142 102.197 148.821 94.121 L 143.500 86.045 134.628 86.023 C 125.959 86.001, 125.788 86.046, 127.128 88.003 M 213 91.837 C 213 92.298, 216.566 97.778, 220.924 104.015 L 228.847 115.356 224.213 121.928 C 221.665 125.543, 217.874 130.843, 215.790 133.707 C 213.705 136.571, 212 139.159, 212 139.457 C 212 139.756, 215.309 140, 219.353 140 L 226.707 140 231.361 133 C 233.921 129.150, 236.396 126, 236.861 126 C 237.326 126, 239.801 129.150, 242.361 133 L 247.016 140 254.508 140 C 258.629 140, 262 139.751, 262 139.447 C 262 138.884, 252.539 125.020, 248.323 119.406 C 247.046 117.704, 246.009 115.679, 246.021 114.906 C 246.033 114.133, 249.217 109.225, 253.098 104 C 263.514 89.977, 263.400 91, 254.543 91 L 247.016 91 242.361 98 C 239.801 101.850, 237.551 105, 237.361 105 C 237.171 105, 234.921 101.850, 232.361 98 L 227.707 91 220.353 91 C 216.309 91, 213 91.377, 213 91.837 M 0.252 126.500 C 0.263 128.700, 0.468 129.482, 0.707 128.238 C 0.946 126.994, 0.937 125.194, 0.687 124.238 C 0.437 123.282, 0.241 124.300, 0.252 126.500 M 0.252 141.500 C 0.263 143.700, 0.468 144.482, 0.707 143.238 C 0.946 141.994, 0.937 140.194, 0.687 139.238 C 0.437 138.282, 0.241 139.300, 0.252 141.500" stroke="none" fill="#fcfcfc" fill-rule="evenodd"/></svg>